<?xml version="1.0" encoding="UTF-8"?>
<!DOCTYPE svg PUBLIC "-//W3C//DTD SVG 1.1//EN" "http://www.w3.org/Graphics/SVG/1.1/DTD/svg11.dtd">
<svg version="1.1" xmlns="http://www.w3.org/2000/svg" xmlns:xlink="http://www.w3.org/1999/xlink" font-family="Arial" font-size="13" width="860" height="640">
	<desc>UML diagram model</desc>
	<g id="_4FLVgvwBEeW9zv77lynsJg">
		<defs>
			<linearGradient id="greyGradient" x1="0%" y1="0%" x2="0%" y2="100%" spreadMethod="pad">
				<stop offset="0%" stop-color="#FFFFFF" stop-opacity="1"/>
				<stop offset="100%" stop-color="#EEEEEE" stop-opacity="1"/>
				
			</linearGradient>
			<linearGradient id="packageGradient" x1="0%" y1="0%" x2="0%" y2="100%" spreadMethod="pad">
				<stop offset="0%" stop-color="#FFFFFF" stop-opacity="1"/>
				<stop offset="100%" stop-color="#EFE9DE" stop-opacity="0.4"/>
				
			</linearGradient>
			<linearGradient id="executionSpecificationGradient" x1="0%" y1="0%" x2="0%" y2="100%" spreadMethod="pad">
				<stop offset="0%" stop-color="#FFFFFF" stop-opacity="1"/>
				<stop offset="100%" stop-color="#EFE9DE" stop-opacity="1"/>
				
			</linearGradient>
			
		</defs>
		<g id="_ZCFrEN44EDO9Ne95WZSdHA">
			<rect x="140" y="20" width="93" height="27" rx="3" ry="3" fill="url(#packageGradient)" stroke="#c2b79f" stroke-width="1"/>
			<text x="146" y="36" font-weight="bold" fill="#806221">MBD_Kernel</text>
			<rect x="140" y="44" width="310" height="76" rx="0" ry="0" fill="url(#packageGradient)" stroke="#c2b79f" stroke-width="1"/>
			
		</g>
		<g id="_jQv3cN44EDO9Ne95WZSdHA">
			<rect x="490" y="20" width="33" height="27" rx="3" ry="3" fill="url(#packageGradient)" stroke="#c2b79f" stroke-width="1"/>
			<text x="496" y="36" font-weight="bold" fill="#806221">UI</text>
			<rect x="490" y="44" width="200" height="76" rx="0" ry="0" fill="url(#packageGradient)" stroke="#c2b79f" stroke-width="1"/>
			
		</g>
		<g id="_qyApcN44EDO9Ne95WZSdHA">
			<rect x="50" y="140" width="109" height="27" rx="3" ry="3" fill="url(#packageGradient)" stroke="#c2b79f" stroke-width="1"/>
			<text x="56" y="156" font-weight="bold" fill="#806221">MBD_Utilitaires</text>
			<rect x="50" y="164" width="760" height="256" rx="0" ry="0" fill="url(#packageGradient)" stroke="#c2b79f" stroke-width="1"/>
			
		</g>
		<g id="_B1pSQN47EDO9Ne95WZSdHA">
			<rect x="160" y="480" width="93" height="27" rx="3" ry="3" fill="url(#packageGradient)" stroke="#c2b79f" stroke-width="1"/>
			<text x="166" y="496" font-weight="bold" fill="#806221">MBD_Kernel</text>
			<rect x="160" y="504" width="120" height="16" rx="0" ry="0" fill="url(#packageGradient)" stroke="#c2b79f" stroke-width="1"/>
			
		</g>
		<g id="_eJ3V0N47EDO9Ne95WZSdHA">
			<rect x="550" y="500" width="57" height="27" rx="3" ry="3" fill="url(#packageGradient)" stroke="#c2b79f" stroke-width="1"/>
			<text x="556" y="516" font-weight="bold" fill="#806221">MB_...</text>
			<rect x="550" y="524" width="170" height="66" rx="0" ry="0" fill="url(#packageGradient)" stroke="#c2b79f" stroke-width="1"/>
			
		</g>
		<g id="_c3NigN44EDO9Ne95WZSdHA">
			<rect x="160" y="70" width="270" height="27" rx="3" ry="3" fill="url(#greyGradient)" stroke="#BBBBBB" stroke-width="1"/>
			<text x="295" y="88" text-anchor="middle" font-style="normal" font-weight="bold" fill="#033656">Object</text>
			<line x1="160" y1="95" x2="430" y2="95" stroke-width="1.0" stroke="#BBBBBB"/>
			
		</g>
		<g id="_mEcuIN44EDO9Ne95WZSdHA">
			<rect x="510" y="70" width="160" height="27" rx="3" ry="3" fill="url(#greyGradient)" stroke="#BBBBBB" stroke-width="1"/>
			<text x="590" y="88" text-anchor="middle" font-style="normal" font-weight="bold" fill="#033656">SimpleDialog</text>
			<line x1="510" y1="95" x2="670" y2="95" stroke-width="1.0" stroke="#BBBBBB"/>
			
		</g>
		<g id="_u_ogcN44EDO9Ne95WZSdHA">
			<rect x="590" y="230" width="60" height="27" rx="3" ry="3" fill="url(#greyGradient)" stroke="#BBBBBB" stroke-width="1"/>
			<text x="620" y="248" text-anchor="middle" font-style="normal" font-weight="bold" fill="#033656">Aide</text>
			<line x1="590" y1="255" x2="650" y2="255" stroke-width="1.0" stroke="#BBBBBB"/>
			
		</g>
		<g id="_zWkEcN44EDO9Ne95WZSdHA">
			<rect x="370" y="200" width="65" height="27" rx="3" ry="3" fill="url(#greyGradient)" stroke="#BBBBBB" stroke-width="1"/>
			<text x="403" y="218" text-anchor="middle" font-style="normal" font-weight="bold" fill="#033656">AideClef</text>
			<line x1="370" y1="225" x2="435" y2="225" stroke-width="1.0" stroke="#BBBBBB"/>
			
		</g>
		<g id="_4VxwcN44EDO9Ne95WZSdHA">
			<rect x="480" y="300" width="91" height="27" rx="3" ry="3" fill="url(#greyGradient)" stroke="#BBBBBB" stroke-width="1"/>
			<text x="526" y="318" text-anchor="middle" font-style="normal" font-weight="bold" fill="#033656">AideEnLigne</text>
			<line x1="480" y1="325" x2="571" y2="325" stroke-width="1.0" stroke="#BBBBBB"/>
			
		</g>
		<g id="_7MuvcN44EDO9Ne95WZSdHA">
			<rect x="100" y="210" width="91" height="27" rx="3" ry="3" fill="url(#greyGradient)" stroke="#BBBBBB" stroke-width="1"/>
			<text x="146" y="228" text-anchor="middle" font-style="normal" font-weight="bold" fill="#033656">DateEtendue</text>
			<line x1="100" y1="235" x2="191" y2="235" stroke-width="1.0" stroke="#BBBBBB"/>
			
		</g>
		<g id="_-ZlF8N44EDO9Ne95WZSdHA">
			<rect x="640" y="180" width="97" height="27" rx="3" ry="3" fill="url(#greyGradient)" stroke="#BBBBBB" stroke-width="1"/>
			<text x="689" y="198" text-anchor="middle" font-style="normal" font-weight="bold" fill="#033656">ErrorManager</text>
			<line x1="640" y1="205" x2="737" y2="205" stroke-width="1.0" stroke="#BBBBBB"/>
			
		</g>
		<g id="_DLq78N45EDO9Ne95WZSdHA">
			<rect x="180" y="340" width="82" height="27" rx="3" ry="3" fill="url(#greyGradient)" stroke="#BBBBBB" stroke-width="1"/>
			<text x="221" y="358" text-anchor="middle" font-style="normal" font-weight="bold" fill="#033656">Iternational</text>
			<line x1="180" y1="365" x2="262" y2="365" stroke-width="1.0" stroke="#BBBBBB"/>
			
		</g>
		<g id="_IcII8N45EDO9Ne95WZSdHA">
			<rect x="240" y="290" width="90" height="27" rx="3" ry="3" fill="url(#greyGradient)" stroke="#BBBBBB" stroke-width="1"/>
			<text x="285" y="308" text-anchor="middle" font-style="normal" font-weight="bold" fill="#033656">RWTextFiles</text>
			<line x1="240" y1="315" x2="330" y2="315" stroke-width="1.0" stroke="#BBBBBB"/>
			
		</g>
		<g id="_U2pI4N45EDO9Ne95WZSdHA">
			<rect x="310" y="250" width="71" height="27" rx="3" ry="3" fill="url(#greyGradient)" stroke="#BBBBBB" stroke-width="1"/>
			<text x="346" y="268" text-anchor="middle" font-style="normal" font-weight="bold" fill="#033656">Utilitaires</text>
			<line x1="310" y1="275" x2="381" y2="275" stroke-width="1.0" stroke="#BBBBBB"/>
			
		</g>
		<g id="_eJ4j8N47EDO9Ne95WZSdHA">
			<polygon fill="#FFFFFF" stroke-width="1" stroke="#BBBBBB" points="570,540 570,580 715,580 715,555 700,540 "/>
			<text x="574" y="545" fill="#2D2D2D">
				<tspan x="574" y="557" font-size="12">Classes of Packages</tspan>
				<tspan x="574" y="569" font-size="12">out of the Bundle</tspan>
				
			</text>
			<polygon fill="#BBBBBB" stroke-width="1" stroke="#BBBBBB" points="700,540 700,555 715,555 "/>
			
		</g>
		<g id="_yXZGcN44EDO9Ne95WZSdHA">
			<polyline fill="none" stroke-width="1" stroke="#000000" points="620,230 620,163"/>
			
		</g>
		<g id="_yXZGcN44EDO9Ne95WZSdHA">
			<polyline fill="none" stroke-width="1" stroke="#000000" points="620,163 620,164"/>
			
		</g>
		<g id="_yXZGcN44EDO9Ne95WZSdHA">
			<polyline fill="none" stroke-width="1" stroke="#000000" points="620,164 620,97"/>
			<g transform="translate(620,97)">
				<g transform="rotate(0)">
					<polygon fill="#FFFFFF" stroke-width="1" stroke="#000000" points="-6,10 0,0 6,10 -6,10"/>
					
				</g>
				
			</g>
			
		</g>
		<g id="_1LNR4N44EDO9Ne95WZSdHA">
			<polyline fill="none" stroke-width="1" stroke="#000000" points="400,200 400,148"/>
			
		</g>
		<g id="_1LNR4N44EDO9Ne95WZSdHA">
			<polyline fill="none" stroke-width="1" stroke="#000000" points="400,148 400,149"/>
			
		</g>
		<g id="_1LNR4N44EDO9Ne95WZSdHA">
			<polyline fill="none" stroke-width="1" stroke="#000000" points="400,149 400,97"/>
			<g transform="translate(400,97)">
				<g transform="rotate(0)">
					<polygon fill="#FFFFFF" stroke-width="1" stroke="#000000" points="-6,10 0,0 6,10 -6,10"/>
					
				</g>
				
			</g>
			
		</g>
		<g id="_6NBl8N44EDO9Ne95WZSdHA">
			<polyline fill="none" stroke-width="1" stroke="#000000" points="532,300 532,198"/>
			
		</g>
		<g id="_6NBl8N44EDO9Ne95WZSdHA">
			<polyline fill="none" stroke-width="1" stroke="#000000" points="532,198 532,199"/>
			
		</g>
		<g id="_6NBl8N44EDO9Ne95WZSdHA">
			<polyline fill="none" stroke-width="1" stroke="#000000" points="532,199 532,97"/>
			<g transform="translate(532,97)">
				<g transform="rotate(0)">
					<polygon fill="#FFFFFF" stroke-width="1" stroke="#000000" points="-6,10 0,0 6,10 -6,10"/>
					
				</g>
				
			</g>
			
		</g>
		<g id="_9c7QcN44EDO9Ne95WZSdHA">
			<polyline fill="none" stroke-width="1" stroke="#000000" points="175,210 175,153"/>
			
		</g>
		<g id="_9c7QcN44EDO9Ne95WZSdHA">
			<polyline fill="none" stroke-width="1" stroke="#000000" points="175,153 175,154"/>
			
		</g>
		<g id="_9c7QcN44EDO9Ne95WZSdHA">
			<polyline fill="none" stroke-width="1" stroke="#000000" points="175,154 175,97"/>
			<g transform="translate(175,97)">
				<g transform="rotate(0)">
					<polygon fill="#FFFFFF" stroke-width="1" stroke="#000000" points="-6,10 0,0 6,10 -6,10"/>
					
				</g>
				
			</g>
			
		</g>
		<g id="_A87McN45EDO9Ne95WZSdHA">
			<polyline fill="none" stroke-width="1" stroke="#000000" points="655,180 655,138"/>
			
		</g>
		<g id="_A87McN45EDO9Ne95WZSdHA">
			<polyline fill="none" stroke-width="1" stroke="#000000" points="655,138 655,139"/>
			
		</g>
		<g id="_A87McN45EDO9Ne95WZSdHA">
			<polyline fill="none" stroke-width="1" stroke="#000000" points="655,139 655,97"/>
			<g transform="translate(655,97)">
				<g transform="rotate(0)">
					<polygon fill="#FFFFFF" stroke-width="1" stroke="#000000" points="-6,10 0,0 6,10 -6,10"/>
					
				</g>
				
			</g>
			
		</g>
		<g id="_Gj4N4N45EDO9Ne95WZSdHA">
			<polyline fill="none" stroke-width="1" stroke="#000000" points="221,340 221,218"/>
			
		</g>
		<g id="_Gj4N4N45EDO9Ne95WZSdHA">
			<polyline fill="none" stroke-width="1" stroke="#000000" points="221,218 221,219"/>
			
		</g>
		<g id="_Gj4N4N45EDO9Ne95WZSdHA">
			<polyline fill="none" stroke-width="1" stroke="#000000" points="221,219 221,97"/>
			<g transform="translate(221,97)">
				<g transform="rotate(0)">
					<polygon fill="#FFFFFF" stroke-width="1" stroke="#000000" points="-6,10 0,0 6,10 -6,10"/>
					
				</g>
				
			</g>
			
		</g>
		<g id="_LUSo4N45EDO9Ne95WZSdHA">
			<polyline fill="none" stroke-width="1" stroke="#000000" points="285,290 285,193"/>
			
		</g>
		<g id="_LUSo4N45EDO9Ne95WZSdHA">
			<polyline fill="none" stroke-width="1" stroke="#000000" points="285,193 285,194"/>
			
		</g>
		<g id="_LUSo4N45EDO9Ne95WZSdHA">
			<polyline fill="none" stroke-width="1" stroke="#000000" points="285,194 285,97"/>
			<g transform="translate(285,97)">
				<g transform="rotate(0)">
					<polygon fill="#FFFFFF" stroke-width="1" stroke="#000000" points="-6,10 0,0 6,10 -6,10"/>
					
				</g>
				
			</g>
			
		</g>
		<g id="_WscM4N45EDO9Ne95WZSdHA">
			<polyline fill="none" stroke-width="1" stroke="#000000" points="345,250 345,173"/>
			
		</g>
		<g id="_WscM4N45EDO9Ne95WZSdHA">
			<polyline fill="none" stroke-width="1" stroke="#000000" points="345,173 345,174"/>
			
		</g>
		<g id="_WscM4N45EDO9Ne95WZSdHA">
			<polyline fill="none" stroke-width="1" stroke="#000000" points="345,174 345,97"/>
			<g transform="translate(345,97)">
				<g transform="rotate(0)">
					<polygon fill="#FFFFFF" stroke-width="1" stroke="#000000" points="-6,10 0,0 6,10 -6,10"/>
					
				</g>
				
			</g>
			
		</g>
		<g id="_eGTWYN45EDO9Ne95WZSdHA">
			<polyline stroke-dasharray="1, 2" fill="none" stroke-width="1" stroke="#000000" points="544,300 602,257"/>
			<g transform="translate(602,257)">
				<g transform="rotate(53)">
					<polyline fill="none" stroke-width="1" stroke="#000000" points="-4,8 0,0 4,8"/>
					
				</g>
				
			</g>
			
		</g>
		<g id="_nkw04N45EDO9Ne95WZSdHA">
			<polyline stroke-dasharray="1, 2" fill="none" stroke-width="1" stroke="#000000" points="508,300 418,227"/>
			<g transform="translate(418,227)">
				<g transform="rotate(-51)">
					<polyline fill="none" stroke-width="1" stroke="#000000" points="-4,8 0,0 4,8"/>
					
				</g>
				
			</g>
			
		</g>
		<g id="_FL4OQN47EDO9Ne95WZSdHA">
			<polyline stroke-dasharray="1, 2" fill="none" stroke-width="1" stroke="#000000" points="220,480 220,367"/>
			<g transform="translate(220,367)">
				<g transform="rotate(0)">
					<polyline fill="none" stroke-width="1" stroke="#000000" points="-4,8 0,0 4,8"/>
					
				</g>
				
			</g>
			
		</g>
		<g id="_fFM8sN47EDO9Ne95WZSdHA">
			<polyline stroke-dasharray="1, 2" fill="none" stroke-width="1" stroke="#000000" points="550,505 249,367"/>
			<g transform="translate(249,367)">
				<g transform="rotate(-65)">
					<polyline fill="none" stroke-width="1" stroke="#000000" points="-4,8 0,0 4,8"/>
					
				</g>
				
			</g>
			
		</g>
		<g id="_fc7gMN47EDO9Ne95WZSdHA">
			<polyline stroke-dasharray="1, 2" fill="none" stroke-width="1" stroke="#000000" points="613,500 532,327"/>
			<g transform="translate(532,327)">
				<g transform="rotate(-25)">
					<polyline fill="none" stroke-width="1" stroke="#000000" points="-4,8 0,0 4,8"/>
					
				</g>
				
			</g>
			
		</g>
		<g id="_gF0sMN47EDO9Ne95WZSdHA">
			<polyline stroke-dasharray="1, 2" fill="none" stroke-width="1" stroke="#000000" points="632,500 620,257"/>
			<g transform="translate(620,257)">
				<g transform="rotate(-3)">
					<polyline fill="none" stroke-width="1" stroke="#000000" points="-4,8 0,0 4,8"/>
					
				</g>
				
			</g>
			
		</g>
		<g id="_g1gcsN47EDO9Ne95WZSdHA">
			<polyline stroke-dasharray="1, 2" fill="none" stroke-width="1" stroke="#000000" points="641,500 687,207"/>
			<g transform="translate(687,207)">
				<g transform="rotate(9)">
					<polyline fill="none" stroke-width="1" stroke="#000000" points="-4,8 0,0 4,8"/>
					
				</g>
				
			</g>
			
		</g>
		<g id="_pma4sN47EDO9Ne95WZSdHA">
			<polyline stroke-dasharray="1, 2" fill="none" stroke-width="1" stroke="#000000" points="569,500 303,317"/>
			<g transform="translate(303,317)">
				<g transform="rotate(-55)">
					<polyline fill="none" stroke-width="1" stroke="#000000" points="-4,8 0,0 4,8"/>
					
				</g>
				
			</g>
			
		</g>
		<g id="_4qPdMN47EDO9Ne95WZSdHA">
			<polyline stroke-dasharray="1, 2" fill="none" stroke-width="1" stroke="#000000" points="588,500 359,277"/>
			<g transform="translate(359,277)">
				<g transform="rotate(-46)">
					<polyline fill="none" stroke-width="1" stroke="#000000" points="-4,8 0,0 4,8"/>
					
				</g>
				
			</g>
			
		</g>
		<text x="561" y="286" fill="#000000">« use »</text>
		<text x="439" y="255" fill="#000000">« use »</text>
		<text x="196" y="415" fill="#000000">« use »</text>
		<text x="336" y="406" fill="#000000">« use »</text>
		<text x="549" y="405" fill="#000000">« use »</text>
		<text x="602" y="370" fill="#000000">« use »</text>
		<text x="640" y="345" fill="#000000">« use »</text>
		<text x="386" y="376" fill="#000000">« use »</text>
		<text x="456" y="376" fill="#000000">« use »</text>
		
	</g>
	
</svg>