<?xml version="1.0" encoding="UTF-8"?>
<!DOCTYPE svg PUBLIC "-//W3C//DTD SVG 1.1//EN" "http://www.w3.org/Graphics/SVG/1.1/DTD/svg11.dtd">
<svg version="1.1" xmlns="http://www.w3.org/2000/svg" xmlns:xlink="http://www.w3.org/1999/xlink" font-family="Arial" font-size="13" width="1213" height="560">
	<desc>UML diagram model</desc>
	<g id="_1fHpUvvtEeW9zv77lynsJg">
		<defs>
			<linearGradient id="greyGradient" x1="0%" y1="0%" x2="0%" y2="100%" spreadMethod="pad">
				<stop offset="0%" stop-color="#FFFFFF" stop-opacity="1"/>
				<stop offset="100%" stop-color="#EEEEEE" stop-opacity="1"/>
				
			</linearGradient>
			<linearGradient id="packageGradient" x1="0%" y1="0%" x2="0%" y2="100%" spreadMethod="pad">
				<stop offset="0%" stop-color="#FFFFFF" stop-opacity="1"/>
				<stop offset="100%" stop-color="#EFE9DE" stop-opacity="0.4"/>
				
			</linearGradient>
			<linearGradient id="executionSpecificationGradient" x1="0%" y1="0%" x2="0%" y2="100%" spreadMethod="pad">
				<stop offset="0%" stop-color="#FFFFFF" stop-opacity="1"/>
				<stop offset="100%" stop-color="#EFE9DE" stop-opacity="1"/>
				
			</linearGradient>
			
		</defs>
		<g id="_aCbd0N4kEDOFUIjeLOrgqw">
			<rect x="220" y="20" width="70" height="27" rx="3" ry="3" fill="url(#packageGradient)" stroke="#c2b79f" stroke-width="1"/>
			<text x="226" y="36" font-weight="bold" fill="#806221">Smaltalk</text>
			<rect x="220" y="44" width="722" height="76" rx="0" ry="0" fill="url(#packageGradient)" stroke="#c2b79f" stroke-width="1"/>
			
		</g>
		<g id="_RHPPAN4lEDOFUIjeLOrgqw">
			<rect x="980" y="20" width="48" height="27" rx="3" ry="3" fill="url(#packageGradient)" stroke="#c2b79f" stroke-width="1"/>
			<text x="986" y="36" font-weight="bold" fill="#806221">Core</text>
			<rect x="980" y="44" width="110" height="76" rx="0" ry="0" fill="url(#packageGradient)" stroke="#c2b79f" stroke-width="1"/>
			
		</g>
		<g id="_caqrEN4lEDOFUIjeLOrgqw">
			<rect x="50" y="140" width="122" height="27" rx="3" ry="3" fill="url(#packageGradient)" stroke="#c2b79f" stroke-width="1"/>
			<text x="56" y="156" font-weight="bold" fill="#806221">MBX_Statistiques</text>
			<rect x="50" y="164" width="1113" height="216" rx="0" ry="0" fill="url(#packageGradient)" stroke="#c2b79f" stroke-width="1"/>
			
		</g>
		<g id="_H2P54N4nEDOFUIjeLOrgqw">
			<rect x="190" y="460" width="123" height="27" rx="3" ry="3" fill="url(#packageGradient)" stroke="#c2b79f" stroke-width="1"/>
			<text x="196" y="476" font-weight="bold" fill="#806221">MBD_Statistiques</text>
			<rect x="190" y="484" width="150" height="26" rx="0" ry="0" fill="url(#packageGradient)" stroke="#c2b79f" stroke-width="1"/>
			
		</g>
		<g id="_R6vdoN4nEDOFUIjeLOrgqw">
			<rect x="370" y="460" width="112" height="27" rx="3" ry="3" fill="url(#packageGradient)" stroke="#c2b79f" stroke-width="1"/>
			<text x="376" y="476" font-weight="bold" fill="#806221">MBD_Fonctions</text>
			<rect x="370" y="484" width="150" height="26" rx="0" ry="0" fill="url(#packageGradient)" stroke="#c2b79f" stroke-width="1"/>
			
		</g>
		<g id="_fRLaoN4kEDOFUIjeLOrgqw">
			<rect x="230" y="74" width="130" height="26" rx="3" ry="3" fill="url(#greyGradient)" stroke="#BBBBBB" stroke-width="1"/>
			<text x="295" y="92" text-anchor="middle" font-style="normal" font-weight="bold" fill="#033656">DiscreteProbability</text>
			<line x1="230" y1="99" x2="360" y2="99" stroke-width="1.0" stroke="#BBBBBB"/>
			
		</g>
		<g id="_8B6bEN4kEDOFUIjeLOrgqw">
			<rect x="390" y="70" width="68" height="26" rx="3" ry="3" fill="url(#greyGradient)" stroke="#BBBBBB" stroke-width="1"/>
			<text x="424" y="88" text-anchor="middle" font-style="normal" font-weight="bold" fill="#033656">Bernoulli</text>
			<line x1="390" y1="95" x2="458" y2="95" stroke-width="1.0" stroke="#BBBBBB"/>
			
		</g>
		<g id="_A9_6kN4lEDOFUIjeLOrgqw">
			<rect x="500" y="74" width="152" height="26" rx="3" ry="3" fill="url(#greyGradient)" stroke="#BBBBBB" stroke-width="1"/>
			<text x="576" y="92" text-anchor="middle" font-style="normal" font-weight="bold" fill="#033656">ProbabilityDistribution</text>
			<line x1="500" y1="99" x2="652" y2="99" stroke-width="1.0" stroke="#BBBBBB"/>
			
		</g>
		<g id="_EleXkN4lEDOFUIjeLOrgqw">
			<rect x="780" y="74" width="151" height="26" rx="3" ry="3" fill="url(#greyGradient)" stroke="#BBBBBB" stroke-width="1"/>
			<text x="856" y="92" text-anchor="middle" font-style="normal" font-weight="bold" fill="#033656">ContinuousProbability</text>
			<line x1="780" y1="99" x2="931" y2="99" stroke-width="1.0" stroke="#BBBBBB"/>
			
		</g>
		<g id="_HWoQkN4lEDOFUIjeLOrgqw">
			<rect x="680" y="74" width="78" height="26" rx="3" ry="3" fill="url(#greyGradient)" stroke="#BBBBBB" stroke-width="1"/>
			<text x="719" y="92" text-anchor="middle" font-style="normal" font-weight="bold" fill="#033656">Exponetial</text>
			<line x1="680" y1="99" x2="758" y2="99" stroke-width="1.0" stroke="#BBBBBB"/>
			
		</g>
		<g id="_UJQOgN4lEDOFUIjeLOrgqw">
			<rect x="1000" y="70" width="60" height="26" rx="3" ry="3" fill="url(#greyGradient)" stroke="#BBBBBB" stroke-width="1"/>
			<text x="1030" y="88" text-anchor="middle" font-style="normal" font-weight="bold" fill="#033656">Stream</text>
			<line x1="1000" y1="95" x2="1060" y2="95" stroke-width="1.0" stroke="#BBBBBB"/>
			
		</g>
		<g id="_oiy6gN4lEDOFUIjeLOrgqw">
			<rect x="180" y="200" width="68" height="28" rx="3" ry="3" fill="url(#greyGradient)" stroke="#BBBBBB" stroke-width="1"/>
			<text x="214" y="218" text-anchor="middle" font-style="normal" font-weight="bold" fill="#033656">Bernoulli</text>
			<line x1="180" y1="225" x2="248" y2="225" stroke-width="1.0" stroke="#BBBBBB"/>
			
		</g>
		<g id="_zCVbgN4lEDOFUIjeLOrgqw">
			<rect x="370" y="210" width="67" height="28" rx="3" ry="3" fill="url(#greyGradient)" stroke="#BBBBBB" stroke-width="1"/>
			<text x="404" y="228" text-anchor="middle" font-style="normal" font-weight="bold" fill="#033656">Binomial</text>
			<line x1="370" y1="235" x2="437" y2="235" stroke-width="1.0" stroke="#BBBBBB"/>
			
		</g>
		<g id="_21BqAN4lEDOFUIjeLOrgqw">
			<rect x="440" y="330" width="151" height="28" rx="3" ry="3" fill="url(#greyGradient)" stroke="#BBBBBB" stroke-width="1"/>
			<text x="516" y="348" text-anchor="middle" font-style="normal" font-weight="bold" fill="#033656">ContinuousProbability</text>
			<line x1="440" y1="355" x2="591" y2="355" stroke-width="1.0" stroke="#BBBBBB"/>
			
		</g>
		<g id="_DiKD8N4mEDOFUIjeLOrgqw">
			<rect x="570" y="260" width="130" height="28" rx="3" ry="3" fill="url(#greyGradient)" stroke="#BBBBBB" stroke-width="1"/>
			<text x="635" y="278" text-anchor="middle" font-style="normal" font-weight="bold" fill="#033656">DiscreteProbability</text>
			<line x1="570" y1="285" x2="700" y2="285" stroke-width="1.0" stroke="#BBBBBB"/>
			
		</g>
		<g id="_IuCS8N4mEDOFUIjeLOrgqw">
			<rect x="820" y="220" width="78" height="28" rx="3" ry="3" fill="url(#greyGradient)" stroke="#BBBBBB" stroke-width="1"/>
			<text x="859" y="238" text-anchor="middle" font-style="normal" font-weight="bold" fill="#033656">Exponetial</text>
			<line x1="820" y1="245" x2="898" y2="245" stroke-width="1.0" stroke="#BBBBBB"/>
			
		</g>
		<g id="_MmrYcN4mEDOFUIjeLOrgqw">
			<rect x="700" y="190" width="60" height="28" rx="3" ry="3" fill="url(#greyGradient)" stroke="#BBBBBB" stroke-width="1"/>
			<text x="730" y="208" text-anchor="middle" font-style="normal" font-weight="bold" fill="#033656">Gamma</text>
			<line x1="700" y1="215" x2="760" y2="215" stroke-width="1.0" stroke="#BBBBBB"/>
			
		</g>
		<g id="_QTQ-8N4mEDOFUIjeLOrgqw">
			<rect x="420" y="260" width="87" height="28" rx="3" ry="3" fill="url(#greyGradient)" stroke="#BBBBBB" stroke-width="1"/>
			<text x="464" y="278" text-anchor="middle" font-style="normal" font-weight="bold" fill="#033656">Geometrical</text>
			<line x1="420" y1="285" x2="507" y2="285" stroke-width="1.0" stroke="#BBBBBB"/>
			
		</g>
		<g id="_b2ZD4N4mEDOFUIjeLOrgqw">
			<rect x="880" y="330" width="60" height="28" rx="3" ry="3" fill="url(#greyGradient)" stroke="#BBBBBB" stroke-width="1"/>
			<text x="910" y="348" text-anchor="middle" font-style="normal" font-weight="bold" fill="#033656">Normal</text>
			<line x1="880" y1="355" x2="940" y2="355" stroke-width="1.0" stroke="#BBBBBB"/>
			
		</g>
		<g id="_jJihYN4mEDOFUIjeLOrgqw">
			<rect x="310" y="310" width="63" height="28" rx="3" ry="3" fill="url(#greyGradient)" stroke="#BBBBBB" stroke-width="1"/>
			<text x="342" y="328" text-anchor="middle" font-style="normal" font-weight="bold" fill="#033656">Poisson</text>
			<line x1="310" y1="335" x2="373" y2="335" stroke-width="1.0" stroke="#BBBBBB"/>
			
		</g>
		<g id="_nM4bAN4mEDOFUIjeLOrgqw">
			<rect x="960" y="220" width="152" height="26" rx="3" ry="3" fill="url(#greyGradient)" stroke="#BBBBBB" stroke-width="1"/>
			<text x="1036" y="238" text-anchor="middle" font-style="normal" font-weight="bold" fill="#033656">ProbabilityDistribution</text>
			<line x1="960" y1="245" x2="1112" y2="245" stroke-width="1.0" stroke="#BBBBBB"/>
			
		</g>
		<g id="_veuVYN4mEDOFUIjeLOrgqw">
			<rect x="230" y="250" width="97" height="28" rx="3" ry="3" fill="url(#greyGradient)" stroke="#BBBBBB" stroke-width="1"/>
			<text x="279" y="268" text-anchor="middle" font-style="normal" font-weight="bold" fill="#033656">SampleSpace</text>
			<line x1="230" y1="275" x2="327" y2="275" stroke-width="1.0" stroke="#BBBBBB"/>
			
		</g>
		<g id="_7i-KYN4mEDOFUIjeLOrgqw">
			<rect x="760" y="270" width="62" height="28" rx="3" ry="3" fill="url(#greyGradient)" stroke="#BBBBBB" stroke-width="1"/>
			<text x="791" y="288" text-anchor="middle" font-style="normal" font-weight="bold" fill="#033656">Uniform</text>
			<line x1="760" y1="295" x2="822" y2="295" stroke-width="1.0" stroke="#BBBBBB"/>
			
		</g>
		<g id="_tPPbgN4lEDOFUIjeLOrgqw">
			<polyline fill="none" stroke-width="1" stroke="#000000" points="239,200 239,150"/>
			
		</g>
		<g id="_tPPbgN4lEDOFUIjeLOrgqw">
			<polyline fill="none" stroke-width="1" stroke="#000000" points="239,150 239,150"/>
			
		</g>
		<g id="_tPPbgN4lEDOFUIjeLOrgqw">
			<polyline fill="none" stroke-width="1" stroke="#000000" points="239,150 239,100"/>
			<g transform="translate(239,100)">
				<g transform="rotate(0)">
					<polygon fill="#FFFFFF" stroke-width="1" stroke="#000000" points="-6,10 0,0 6,10 -6,10"/>
					
				</g>
				
			</g>
			
		</g>
		<g id="_1QswgN4lEDOFUIjeLOrgqw">
			<polyline fill="none" stroke-width="1" stroke="#000000" points="413,210 413,153"/>
			
		</g>
		<g id="_1QswgN4lEDOFUIjeLOrgqw">
			<polyline fill="none" stroke-width="1" stroke="#000000" points="413,153 413,153"/>
			
		</g>
		<g id="_1QswgN4lEDOFUIjeLOrgqw">
			<polyline fill="none" stroke-width="1" stroke="#000000" points="413,153 413,96"/>
			<g transform="translate(413,96)">
				<g transform="rotate(0)">
					<polygon fill="#FFFFFF" stroke-width="1" stroke="#000000" points="-6,10 0,0 6,10 -6,10"/>
					
				</g>
				
			</g>
			
		</g>
		<g id="_5kQ3cN4lEDOFUIjeLOrgqw">
			<polyline fill="none" stroke-width="1" stroke="#000000" points="545,330 545,215"/>
			
		</g>
		<g id="_5kQ3cN4lEDOFUIjeLOrgqw">
			<polyline fill="none" stroke-width="1" stroke="#000000" points="545,215 545,215"/>
			
		</g>
		<g id="_5kQ3cN4lEDOFUIjeLOrgqw">
			<polyline fill="none" stroke-width="1" stroke="#000000" points="545,215 545,100"/>
			<g transform="translate(545,100)">
				<g transform="rotate(0)">
					<polygon fill="#FFFFFF" stroke-width="1" stroke="#000000" points="-6,10 0,0 6,10 -6,10"/>
					
				</g>
				
			</g>
			
		</g>
		<g id="_HAfMAN4mEDOFUIjeLOrgqw">
			<polyline fill="none" stroke-width="1" stroke="#000000" points="611,260 611,180"/>
			
		</g>
		<g id="_HAfMAN4mEDOFUIjeLOrgqw">
			<polyline fill="none" stroke-width="1" stroke="#000000" points="611,180 611,180"/>
			
		</g>
		<g id="_HAfMAN4mEDOFUIjeLOrgqw">
			<polyline fill="none" stroke-width="1" stroke="#000000" points="611,180 611,100"/>
			<g transform="translate(611,100)">
				<g transform="rotate(0)">
					<polygon fill="#FFFFFF" stroke-width="1" stroke="#000000" points="-6,10 0,0 6,10 -6,10"/>
					
				</g>
				
			</g>
			
		</g>
		<g id="_Kd4f8N4mEDOFUIjeLOrgqw">
			<polyline fill="none" stroke-width="1" stroke="#000000" points="859,220 859,160"/>
			
		</g>
		<g id="_Kd4f8N4mEDOFUIjeLOrgqw">
			<polyline fill="none" stroke-width="1" stroke="#000000" points="859,160 859,160"/>
			
		</g>
		<g id="_Kd4f8N4mEDOFUIjeLOrgqw">
			<polyline fill="none" stroke-width="1" stroke="#000000" points="859,160 859,100"/>
			<g transform="translate(859,100)">
				<g transform="rotate(0)">
					<polygon fill="#FFFFFF" stroke-width="1" stroke="#000000" points="-6,10 0,0 6,10 -6,10"/>
					
				</g>
				
			</g>
			
		</g>
		<g id="_OsHa8N4mEDOFUIjeLOrgqw">
			<polyline fill="none" stroke-width="1" stroke="#000000" points="729,190 729,145"/>
			
		</g>
		<g id="_OsHa8N4mEDOFUIjeLOrgqw">
			<polyline fill="none" stroke-width="1" stroke="#000000" points="729,145 729,145"/>
			
		</g>
		<g id="_OsHa8N4mEDOFUIjeLOrgqw">
			<polyline fill="none" stroke-width="1" stroke="#000000" points="729,145 729,100"/>
			<g transform="translate(729,100)">
				<g transform="rotate(0)">
					<polygon fill="#FFFFFF" stroke-width="1" stroke="#000000" points="-6,10 0,0 6,10 -6,10"/>
					
				</g>
				
			</g>
			
		</g>
		<g id="_TJiBcN4mEDOFUIjeLOrgqw">
			<polyline fill="none" stroke-width="1" stroke="#000000" points="439,260 439,178"/>
			
		</g>
		<g id="_TJiBcN4mEDOFUIjeLOrgqw">
			<polyline fill="none" stroke-width="1" stroke="#000000" points="439,178 439,178"/>
			
		</g>
		<g id="_TJiBcN4mEDOFUIjeLOrgqw">
			<polyline fill="none" stroke-width="1" stroke="#000000" points="439,178 439,96"/>
			<g transform="translate(439,96)">
				<g transform="rotate(0)">
					<polygon fill="#FFFFFF" stroke-width="1" stroke="#000000" points="-6,10 0,0 6,10 -6,10"/>
					
				</g>
				
			</g>
			
		</g>
		<g id="_d4yZcN4mEDOFUIjeLOrgqw">
			<polyline fill="none" stroke-width="1" stroke="#000000" points="905,330 905,215"/>
			
		</g>
		<g id="_d4yZcN4mEDOFUIjeLOrgqw">
			<polyline fill="none" stroke-width="1" stroke="#000000" points="905,215 905,215"/>
			
		</g>
		<g id="_d4yZcN4mEDOFUIjeLOrgqw">
			<polyline fill="none" stroke-width="1" stroke="#000000" points="905,215 905,100"/>
			<g transform="translate(905,100)">
				<g transform="rotate(0)">
					<polygon fill="#FFFFFF" stroke-width="1" stroke="#000000" points="-6,10 0,0 6,10 -6,10"/>
					
				</g>
				
			</g>
			
		</g>
		<g id="_k9lR4N4mEDOFUIjeLOrgqw">
			<polyline fill="none" stroke-width="1" stroke="#000000" points="335,310 335,205"/>
			
		</g>
		<g id="_k9lR4N4mEDOFUIjeLOrgqw">
			<polyline fill="none" stroke-width="1" stroke="#000000" points="335,205 335,205"/>
			
		</g>
		<g id="_k9lR4N4mEDOFUIjeLOrgqw">
			<polyline fill="none" stroke-width="1" stroke="#000000" points="335,205 335,100"/>
			<g transform="translate(335,100)">
				<g transform="rotate(0)">
					<polygon fill="#FFFFFF" stroke-width="1" stroke="#000000" points="-6,10 0,0 6,10 -6,10"/>
					
				</g>
				
			</g>
			
		</g>
		<g id="_ro-y4N4mEDOFUIjeLOrgqw">
			<polyline fill="none" stroke-width="1" stroke="#000000" points="1030,220 1030,158"/>
			
		</g>
		<g id="_ro-y4N4mEDOFUIjeLOrgqw">
			<polyline fill="none" stroke-width="1" stroke="#000000" points="1030,158 1030,158"/>
			
		</g>
		<g id="_ro-y4N4mEDOFUIjeLOrgqw">
			<polyline fill="none" stroke-width="1" stroke="#000000" points="1030,158 1030,96"/>
			<g transform="translate(1030,96)">
				<g transform="rotate(0)">
					<polygon fill="#FFFFFF" stroke-width="1" stroke="#000000" points="-6,10 0,0 6,10 -6,10"/>
					
				</g>
				
			</g>
			
		</g>
		<g id="_zLx18N4mEDOFUIjeLOrgqw">
			<polyline fill="none" stroke-width="1" stroke="#000000" points="278,250 278,175"/>
			
		</g>
		<g id="_zLx18N4mEDOFUIjeLOrgqw">
			<polyline fill="none" stroke-width="1" stroke="#000000" points="278,175 278,175"/>
			
		</g>
		<g id="_zLx18N4mEDOFUIjeLOrgqw">
			<polyline fill="none" stroke-width="1" stroke="#000000" points="278,175 278,100"/>
			<g transform="translate(278,100)">
				<g transform="rotate(0)">
					<polygon fill="#FFFFFF" stroke-width="1" stroke="#000000" points="-6,10 0,0 6,10 -6,10"/>
					
				</g>
				
			</g>
			
		</g>
		<g id="_9bz7UN4mEDOFUIjeLOrgqw">
			<polyline fill="none" stroke-width="1" stroke="#000000" points="801,270 801,185"/>
			
		</g>
		<g id="_9bz7UN4mEDOFUIjeLOrgqw">
			<polyline fill="none" stroke-width="1" stroke="#000000" points="801,185 801,185"/>
			
		</g>
		<g id="_9bz7UN4mEDOFUIjeLOrgqw">
			<polyline fill="none" stroke-width="1" stroke="#000000" points="801,185 801,100"/>
			<g transform="translate(801,100)">
				<g transform="rotate(0)">
					<polygon fill="#FFFFFF" stroke-width="1" stroke="#000000" points="-6,10 0,0 6,10 -6,10"/>
					
				</g>
				
			</g>
			
		</g>
		<g id="_AYpf4N4nEDOFUIjeLOrgqw">
			<polyline stroke-dasharray="1, 2" fill="none" stroke-width="1" stroke="#000000" points="882,330 818,298"/>
			<g transform="translate(818,298)">
				<g transform="rotate(-63)">
					<polyline fill="none" stroke-width="1" stroke="#000000" points="-4,8 0,0 4,8"/>
					
				</g>
				
			</g>
			
		</g>
		<g id="_LhAUYN4nEDOFUIjeLOrgqw">
			<polyline stroke-dasharray="1, 2" fill="none" stroke-width="1" stroke="#000000" points="276,460 335,338"/>
			<g transform="translate(335,338)">
				<g transform="rotate(26)">
					<polyline fill="none" stroke-width="1" stroke="#000000" points="-4,8 0,0 4,8"/>
					
				</g>
				
			</g>
			
		</g>
		<g id="_VBEVYN4nEDOFUIjeLOrgqw">
			<polyline stroke-dasharray="1, 2" fill="none" stroke-width="1" stroke="#000000" points="429,460 350,338"/>
			<g transform="translate(350,338)">
				<g transform="rotate(-33)">
					<polyline fill="none" stroke-width="1" stroke="#000000" points="-4,8 0,0 4,8"/>
					
				</g>
				
			</g>
			
		</g>
		<g id="_Vpu34N4nEDOFUIjeLOrgqw">
			<polyline stroke-dasharray="1, 2" fill="none" stroke-width="1" stroke="#000000" points="520,462 880,353"/>
			<g transform="translate(880,353)">
				<g transform="rotate(73)">
					<polyline fill="none" stroke-width="1" stroke="#000000" points="-4,8 0,0 4,8"/>
					
				</g>
				
			</g>
			
		</g>
		<text x="816" y="326" fill="#000000">« use »</text>
		<text x="282" y="390" fill="#000000">« use »</text>
		<text x="366" y="390" fill="#000000">« use »</text>
		<text x="676" y="399" fill="#000000">« use »</text>
		
	</g>
	
</svg>