<?xml version="1.0" encoding="UTF-8"?>
<!DOCTYPE svg PUBLIC "-//W3C//DTD SVG 1.1//EN" "http://www.w3.org/Graphics/SVG/1.1/DTD/svg11.dtd">
<svg version="1.1" xmlns="http://www.w3.org/2000/svg" xmlns:xlink="http://www.w3.org/1999/xlink" font-family="Arial" font-size="13" width="1110" height="690">
	<desc>UML diagram model</desc>
	<g id="_N8HqEvv2EeW9zv77lynsJg">
		<defs>
			<linearGradient id="greyGradient" x1="0%" y1="0%" x2="0%" y2="100%" spreadMethod="pad">
				<stop offset="0%" stop-color="#FFFFFF" stop-opacity="1"/>
				<stop offset="100%" stop-color="#EEEEEE" stop-opacity="1"/>
				
			</linearGradient>
			<linearGradient id="packageGradient" x1="0%" y1="0%" x2="0%" y2="100%" spreadMethod="pad">
				<stop offset="0%" stop-color="#FFFFFF" stop-opacity="1"/>
				<stop offset="100%" stop-color="#EFE9DE" stop-opacity="0.4"/>
				
			</linearGradient>
			<linearGradient id="executionSpecificationGradient" x1="0%" y1="0%" x2="0%" y2="100%" spreadMethod="pad">
				<stop offset="0%" stop-color="#FFFFFF" stop-opacity="1"/>
				<stop offset="100%" stop-color="#EFE9DE" stop-opacity="1"/>
				
			</linearGradient>
			
		</defs>
		<g id="_pETn8N4sEDOqLrdlh0qYlg">
			<rect x="190" y="20" width="48" height="27" rx="3" ry="3" fill="url(#packageGradient)" stroke="#c2b79f" stroke-width="1"/>
			<text x="196" y="36" font-weight="bold" fill="#806221">Core</text>
			<rect x="190" y="44" width="180" height="136" rx="0" ry="0" fill="url(#packageGradient)" stroke="#c2b79f" stroke-width="1"/>
			
		</g>
		<g id="_pzMHMN4sEDOqLrdlh0qYlg">
			<rect x="650" y="20" width="33" height="27" rx="3" ry="3" fill="url(#packageGradient)" stroke="#c2b79f" stroke-width="1"/>
			<text x="656" y="36" font-weight="bold" fill="#806221">UI</text>
			<rect x="650" y="44" width="350" height="136" rx="0" ry="0" fill="url(#packageGradient)" stroke="#c2b79f" stroke-width="1"/>
			
		</g>
		<g id="_r4UnsN4sEDOqLrdlh0qYlg">
			<rect x="410" y="20" width="70" height="27" rx="3" ry="3" fill="url(#packageGradient)" stroke="#c2b79f" stroke-width="1"/>
			<text x="416" y="36" font-weight="bold" fill="#806221">Smaltalk</text>
			<rect x="410" y="44" width="190" height="136" rx="0" ry="0" fill="url(#packageGradient)" stroke="#c2b79f" stroke-width="1"/>
			
		</g>
		<g id="_5FbiMN4sEDOqLrdlh0qYlg">
			<rect x="50" y="200" width="129" height="27" rx="3" ry="3" fill="url(#packageGradient)" stroke="#c2b79f" stroke-width="1"/>
			<text x="56" y="216" font-weight="bold" fill="#806221">MBX_TreeBrowser</text>
			<rect x="50" y="224" width="1010" height="296" rx="0" ry="0" fill="url(#packageGradient)" stroke="#c2b79f" stroke-width="1"/>
			
		</g>
		<g id="_YKmiEN47EDONeY88S6ZvlA">
			<rect x="210" y="550" width="57" height="27" rx="3" ry="3" fill="url(#packageGradient)" stroke="#c2b79f" stroke-width="1"/>
			<text x="216" y="566" font-weight="bold" fill="#806221">MB_...</text>
			<rect x="210" y="574" width="170" height="66" rx="0" ry="0" fill="url(#packageGradient)" stroke="#c2b79f" stroke-width="1"/>
			
		</g>
		<g id="_DQEKMN4tEDOqLrdlh0qYlg">
			<rect x="210" y="100" width="140" height="28" rx="3" ry="3" fill="url(#greyGradient)" stroke="#BBBBBB" stroke-width="1"/>
			<text x="280" y="118" text-anchor="middle" font-style="normal" font-weight="bold" fill="#033656">Object</text>
			<line x1="210" y1="125" x2="350" y2="125" stroke-width="1.0" stroke="#BBBBBB"/>
			
		</g>
		<g id="_GBESMN4tEDOqLrdlh0qYlg">
			<rect x="320" y="390" width="91" height="28" rx="3" ry="3" fill="url(#greyGradient)" stroke="#BBBBBB" stroke-width="1"/>
			<text x="366" y="408" text-anchor="middle" font-style="normal" font-weight="bold" fill="#033656">TreeBrowser</text>
			<line x1="320" y1="415" x2="411" y2="415" stroke-width="1.0" stroke="#BBBBBB"/>
			
		</g>
		<g id="_eNn80N4tEDOqLrdlh0qYlg">
			<rect x="420" y="460" width="182" height="28" rx="3" ry="3" fill="url(#greyGradient)" stroke="#BBBBBB" stroke-width="1"/>
			<text x="511" y="478" text-anchor="middle" font-style="normal" font-weight="bold" fill="#033656">TreeBrowserDemoInterface</text>
			<line x1="420" y1="485" x2="602" y2="485" stroke-width="1.0" stroke="#BBBBBB"/>
			
		</g>
		<g id="_p0xmIN4tEDOqLrdlh0qYlg">
			<rect x="740" y="250" width="154" height="28" rx="3" ry="3" fill="url(#greyGradient)" stroke="#BBBBBB" stroke-width="1"/>
			<text x="817" y="268" text-anchor="middle" font-style="normal" font-weight="bold" fill="#033656">TreeBrowserController</text>
			<line x1="740" y1="275" x2="894" y2="275" stroke-width="1.0" stroke="#BBBBBB"/>
			
		</g>
		<g id="_tcLKoN4tEDOqLrdlh0qYlg">
			<rect x="770" y="130" width="136" height="28" rx="3" ry="3" fill="url(#greyGradient)" stroke="#BBBBBB" stroke-width="1"/>
			<text x="838" y="148" text-anchor="middle" font-style="normal" font-weight="bold" fill="#033656">ControllerWithMenu</text>
			<line x1="770" y1="155" x2="906" y2="155" stroke-width="1.0" stroke="#BBBBBB"/>
			
		</g>
		<g id="_1F58IN4tEDOqLrdlh0qYlg">
			<rect x="920" y="70" width="60" height="28" rx="3" ry="3" fill="url(#greyGradient)" stroke="#BBBBBB" stroke-width="1"/>
			<text x="950" y="88" text-anchor="middle" font-style="normal" font-weight="bold" fill="#033656">View</text>
			<line x1="920" y1="95" x2="980" y2="95" stroke-width="1.0" stroke="#BBBBBB"/>
			
		</g>
		<g id="_4Z3nQN4tEDOqLrdlh0qYlg">
			<rect x="880" y="320" width="121" height="28" rx="3" ry="3" fill="url(#greyGradient)" stroke="#BBBBBB" stroke-width="1"/>
			<text x="941" y="338" text-anchor="middle" font-style="normal" font-weight="bold" fill="#033656">TreeBrowserView</text>
			<line x1="880" y1="345" x2="1001" y2="345" stroke-width="1.0" stroke="#BBBBBB"/>
			
		</g>
		<g id="_E3oIcN4uEDOqLrdlh0qYlg">
			<rect x="600" y="370" width="152" height="28" rx="3" ry="3" fill="url(#greyGradient)" stroke="#BBBBBB" stroke-width="1"/>
			<text x="676" y="388" text-anchor="middle" font-style="normal" font-weight="bold" fill="#033656">TreeBrowserInterface</text>
			<line x1="600" y1="395" x2="752" y2="395" stroke-width="1.0" stroke="#BBBBBB"/>
			
		</g>
		<g id="_UEUVEN4uEDOqLrdlh0qYlg">
			<rect x="670" y="70" width="120" height="28" rx="3" ry="3" fill="url(#greyGradient)" stroke="#BBBBBB" stroke-width="1"/>
			<text x="730" y="88" text-anchor="middle" font-style="normal" font-weight="bold" fill="#033656">ApplicationModel</text>
			<line x1="670" y1="95" x2="790" y2="95" stroke-width="1.0" stroke="#BBBBBB"/>
			
		</g>
		<g id="_fjB0EN4uEDOqLrdlh0qYlg">
			<rect x="170" y="320" width="123" height="28" rx="3" ry="3" fill="url(#greyGradient)" stroke="#BBBBBB" stroke-width="1"/>
			<text x="232" y="338" text-anchor="middle" font-style="normal" font-weight="bold" fill="#033656">TreeBrowserSpec</text>
			<line x1="170" y1="345" x2="293" y2="345" stroke-width="1.0" stroke="#BBBBBB"/>
			
		</g>
		<g id="_LBVcMN4vEDOqLrdlh0qYlg">
			<rect x="430" y="100" width="152" height="28" rx="3" ry="3" fill="url(#greyGradient)" stroke="#BBBBBB" stroke-width="1"/>
			<text x="506" y="118" text-anchor="middle" font-style="normal" font-weight="bold" fill="#033656">TreeBrowserInterface</text>
			<line x1="430" y1="125" x2="582" y2="125" stroke-width="1.0" stroke="#BBBBBB"/>
			
		</g>
		<g id="_YKoXQN47EDONeY88S6ZvlA">
			<polygon fill="#FFFFFF" stroke-width="1" stroke="#BBBBBB" points="230,590 230,630 375,630 375,605 360,590 "/>
			<text x="234" y="595" fill="#2D2D2D">
				<tspan x="234" y="607" font-size="12">Classes of Packages</tspan>
				<tspan x="234" y="619" font-size="12">out of the Bundle</tspan>
				
			</text>
			<polygon fill="#BBBBBB" stroke-width="1" stroke="#BBBBBB" points="360,590 360,605 375,605 "/>
			
		</g>
		<g id="_LZAAMN4tEDOqLrdlh0qYlg">
			<polyline fill="none" stroke-width="1" stroke="#000000" points="335,390 335,259"/>
			
		</g>
		<g id="_LZAAMN4tEDOqLrdlh0qYlg">
			<polyline fill="none" stroke-width="1" stroke="#000000" points="335,259 335,259"/>
			
		</g>
		<g id="_LZAAMN4tEDOqLrdlh0qYlg">
			<polyline fill="none" stroke-width="1" stroke="#000000" points="335,259 335,128"/>
			<g transform="translate(335,128)">
				<g transform="rotate(0)">
					<polygon fill="#FFFFFF" stroke-width="1" stroke="#000000" points="-6,10 0,0 6,10 -6,10"/>
					
				</g>
				
			</g>
			
		</g>
		<g id="_jCgoIN4tEDOqLrdlh0qYlg">
			<polyline stroke-dasharray="1, 2" fill="none" stroke-width="1" stroke="#000000" points="482,460 395,418"/>
			<g transform="translate(395,418)">
				<g transform="rotate(-64)">
					<polyline fill="none" stroke-width="1" stroke="#000000" points="-4,8 0,0 4,8"/>
					
				</g>
				
			</g>
			
		</g>
		<g id="_w4qfoN4tEDOqLrdlh0qYlg">
			<polyline fill="none" stroke-width="1" stroke="#000000" points="832,250 832,204"/>
			
		</g>
		<g id="_w4qfoN4tEDOqLrdlh0qYlg">
			<polyline fill="none" stroke-width="1" stroke="#000000" points="832,204 832,204"/>
			
		</g>
		<g id="_w4qfoN4tEDOqLrdlh0qYlg">
			<polyline fill="none" stroke-width="1" stroke="#000000" points="832,204 832,158"/>
			<g transform="translate(832,158)">
				<g transform="rotate(0)">
					<polygon fill="#FFFFFF" stroke-width="1" stroke="#000000" points="-6,10 0,0 6,10 -6,10"/>
					
				</g>
				
			</g>
			
		</g>
		<g id="_72Z_kN4tEDOqLrdlh0qYlg">
			<polyline stroke-dasharray="1, 2" fill="none" stroke-width="1" stroke="#000000" points="916,320 841,278"/>
			<g transform="translate(841,278)">
				<g transform="rotate(-61)">
					<polyline fill="none" stroke-width="1" stroke="#000000" points="-4,8 0,0 4,8"/>
					
				</g>
				
			</g>
			
		</g>
		<g id="_9G0ekN4tEDOqLrdlh0qYlg">
			<polyline fill="none" stroke-width="1" stroke="#000000" points="950,320 950,209"/>
			
		</g>
		<g id="_9G0ekN4tEDOqLrdlh0qYlg">
			<polyline fill="none" stroke-width="1" stroke="#000000" points="950,209 950,209"/>
			
		</g>
		<g id="_9G0ekN4tEDOqLrdlh0qYlg">
			<polyline fill="none" stroke-width="1" stroke="#000000" points="950,209 950,98"/>
			<g transform="translate(950,98)">
				<g transform="rotate(0)">
					<polygon fill="#FFFFFF" stroke-width="1" stroke="#000000" points="-6,10 0,0 6,10 -6,10"/>
					
				</g>
				
			</g>
			
		</g>
		<g id="_TEOxEN4uEDOqLrdlh0qYlg">
			<polyline stroke-dasharray="1, 2" fill="none" stroke-width="1" stroke="#000000" points="411,401 600,388"/>
			<g transform="translate(600,388)">
				<g transform="rotate(86)">
					<polyline fill="none" stroke-width="1" stroke="#000000" points="-4,8 0,0 4,8"/>
					
				</g>
				
			</g>
			
		</g>
		<g id="_WvhXEN4uEDOqLrdlh0qYlg">
			<polyline fill="none" stroke-width="1" stroke="#000000" points="711,370 711,234"/>
			
		</g>
		<g id="_WvhXEN4uEDOqLrdlh0qYlg">
			<polyline fill="none" stroke-width="1" stroke="#000000" points="711,234 711,234"/>
			
		</g>
		<g id="_WvhXEN4uEDOqLrdlh0qYlg">
			<polyline fill="none" stroke-width="1" stroke="#000000" points="711,234 711,98"/>
			<g transform="translate(711,98)">
				<g transform="rotate(0)">
					<polygon fill="#FFFFFF" stroke-width="1" stroke="#000000" points="-6,10 0,0 6,10 -6,10"/>
					
				</g>
				
			</g>
			
		</g>
		<g id="_iEwxAN4uEDOqLrdlh0qYlg">
			<polyline stroke-dasharray="1, 2" fill="none" stroke-width="1" stroke="#000000" points="339,390 258,348"/>
			<g transform="translate(258,348)">
				<g transform="rotate(-63)">
					<polyline fill="none" stroke-width="1" stroke="#000000" points="-4,8 0,0 4,8"/>
					
				</g>
				
			</g>
			
		</g>
		<g id="_l9U-AN4uEDOqLrdlh0qYlg">
			<polyline fill="none" stroke-width="1" stroke="#000000" points="251,320 251,224"/>
			
		</g>
		<g id="_l9U-AN4uEDOqLrdlh0qYlg">
			<polyline fill="none" stroke-width="1" stroke="#000000" points="251,224 251,224"/>
			
		</g>
		<g id="_l9U-AN4uEDOqLrdlh0qYlg">
			<polyline fill="none" stroke-width="1" stroke="#000000" points="251,224 251,128"/>
			<g transform="translate(251,128)">
				<g transform="rotate(0)">
					<polygon fill="#FFFFFF" stroke-width="1" stroke="#000000" points="-6,10 0,0 6,10 -6,10"/>
					
				</g>
				
			</g>
			
		</g>
		<g id="_x2IYAN4uEDOqLrdlh0qYlg">
			<polyline stroke-dasharray="1, 2" fill="none" stroke-width="1" stroke="#000000" points="750,370 880,345"/>
			<g transform="translate(880,345)">
				<g transform="rotate(79)">
					<polyline fill="none" stroke-width="1" stroke="#000000" points="-4,8 0,0 4,8"/>
					
				</g>
				
			</g>
			
		</g>
		<g id="_QwpvcN4vEDOqLrdlh0qYlg">
			<polyline fill="none" stroke-width="1" stroke="#000000" points="506,460 506,294"/>
			
		</g>
		<g id="_QwpvcN4vEDOqLrdlh0qYlg">
			<polyline fill="none" stroke-width="1" stroke="#000000" points="506,294 506,294"/>
			
		</g>
		<g id="_QwpvcN4vEDOqLrdlh0qYlg">
			<polyline fill="none" stroke-width="1" stroke="#000000" points="506,294 506,128"/>
			<g transform="translate(506,128)">
				<g transform="rotate(0)">
					<polygon fill="#FFFFFF" stroke-width="1" stroke="#000000" points="-6,10 0,0 6,10 -6,10"/>
					
				</g>
				
			</g>
			
		</g>
		<g id="_3_L4kN48EDONeY88S6ZvlA">
			<polyline stroke-dasharray="1, 2" fill="none" stroke-width="1" stroke="#000000" points="311,550 360,418"/>
			<g transform="translate(360,418)">
				<g transform="rotate(20)">
					<polyline fill="none" stroke-width="1" stroke="#000000" points="-4,8 0,0 4,8"/>
					
				</g>
				
			</g>
			
		</g>
		<text x="382" y="446" fill="#000000">« use »</text>
		<text x="896" y="301" fill="#000000">« use »</text>
		<text x="536" y="420" fill="#000000">« use »</text>
		<text x="266" y="386" fill="#000000">« use »</text>
		<text x="791" y="349" fill="#000000">« use »</text>
		<text x="312" y="475" fill="#000000">« use »</text>
		
	</g>
	
</svg>